<svg width="22" height="21" viewBox="0 0 22 21" fill="none" xmlns="http://www.w3.org/2000/svg">
<path d="M7.13281 16.7148C7.13281 16.8294 7.0612 16.8867 6.91797 16.8867C6.74609 16.9154 6.66016 16.8581 6.66016 16.7148C6.66016 16.6289 6.73177 16.5859 6.875 16.5859C7.04688 16.5573 7.13281 16.6003 7.13281 16.7148ZM5.97266 16.7578C5.80078 16.7292 5.72917 16.6576 5.75781 16.543C5.8151 16.4284 5.91536 16.3997 6.05859 16.457C6.20182 16.4857 6.25911 16.5573 6.23047 16.6719C6.20182 16.7865 6.11589 16.8151 5.97266 16.7578ZM7.69141 16.457C7.83464 16.457 7.90625 16.5 7.90625 16.5859C7.9349 16.6719 7.8776 16.7435 7.73438 16.8008C7.59115 16.8294 7.50521 16.7865 7.47656 16.6719C7.47656 16.5573 7.54818 16.4857 7.69141 16.457ZM10.5273 0C12.4753 0 14.2799 0.458333 15.9414 1.375C17.6029 2.29167 18.9062 3.55208 19.8516 5.15625C20.8255 6.76042 21.3125 8.53646 21.3125 10.4844C21.3125 12.862 20.6393 14.9961 19.293 16.8867C17.9753 18.7487 16.2422 20.0378 14.0938 20.7539C13.8646 20.8112 13.6784 20.7826 13.5352 20.668C13.4206 20.5534 13.3633 20.4102 13.3633 20.2383C13.3633 20.2096 13.3633 19.7513 13.3633 18.8633C13.3633 17.9466 13.3633 17.2018 13.3633 16.6289C13.3633 15.7122 13.1198 15.0534 12.6328 14.6523C13.263 14.5664 13.75 14.4948 14.0938 14.4375C14.4375 14.3802 14.8672 14.2513 15.3828 14.0508C15.8984 13.8503 16.2852 13.5924 16.543 13.2773C16.8294 12.9622 17.0729 12.5182 17.2734 11.9453C17.474 11.3724 17.5742 10.6849 17.5742 9.88281C17.5742 9.33854 17.4883 8.89453 17.3164 8.55078C17.1445 8.20703 16.8581 7.82031 16.457 7.39062C16.8008 6.5026 16.7721 5.52865 16.3711 4.46875C16.0846 4.38281 15.6979 4.4401 15.2109 4.64062C14.724 4.8125 14.2943 5.01302 13.9219 5.24219L13.4062 5.62891C12.5182 5.37109 11.6016 5.24219 10.6562 5.24219C9.73958 5.24219 8.85156 5.37109 7.99219 5.62891C7.84896 5.51432 7.64844 5.38542 7.39062 5.24219C7.13281 5.07031 6.73177 4.88411 6.1875 4.68359C5.67188 4.45443 5.28516 4.38281 5.02734 4.46875C4.59766 5.52865 4.55469 6.5026 4.89844 7.39062C4.23958 8.10677 3.91016 8.9375 3.91016 9.88281C3.91016 10.6849 4.01042 11.3724 4.21094 11.9453C4.41146 12.5182 4.64062 12.9622 4.89844 13.2773C5.15625 13.5924 5.52865 13.8503 6.01562 14.0508C6.5026 14.2513 6.91797 14.3945 7.26172 14.4805C7.63411 14.5378 8.12109 14.5951 8.72266 14.6523C8.35026 14.9961 8.12109 15.4831 8.03516 16.1133C7.7487 16.2279 7.44792 16.3138 7.13281 16.3711C6.84635 16.4284 6.47396 16.3711 6.01562 16.1992C5.55729 16.0273 5.1849 15.6979 4.89844 15.2109C4.72656 14.8958 4.4974 14.6523 4.21094 14.4805C3.95312 14.2799 3.72396 14.1654 3.52344 14.1367L3.26562 14.0938C2.63542 14.0938 2.60677 14.3086 3.17969 14.7383C3.38021 14.8529 3.58073 15.0391 3.78125 15.2969C3.98177 15.5547 4.125 15.7839 4.21094 15.9844L4.38281 16.3281C4.4974 16.6719 4.69792 16.9583 4.98438 17.1875C5.27083 17.4167 5.58594 17.5599 5.92969 17.6172C6.27344 17.6745 6.60286 17.7031 6.91797 17.7031C7.23307 17.7031 7.49089 17.6888 7.69141 17.6602L7.99219 17.6172C7.99219 17.9609 7.99219 18.4766 7.99219 19.1641C8.02083 19.8516 8.03516 20.2096 8.03516 20.2383C8.03516 20.4102 7.96354 20.5534 7.82031 20.668C7.70573 20.7826 7.53385 20.8112 7.30469 20.7539C5.1276 20.0378 3.36589 18.7487 2.01953 16.8867C0.673177 14.9961 0 12.862 0 10.4844C0 7.50521 1.0026 5.01302 3.00781 3.00781C5.04167 1.0026 7.54818 0 10.5273 0ZM4.16797 14.8242C4.22526 14.7669 4.29688 14.7812 4.38281 14.8672C4.46875 14.9531 4.48307 15.0247 4.42578 15.082C4.36849 15.1393 4.29688 15.125 4.21094 15.0391C4.125 14.9531 4.11068 14.8815 4.16797 14.8242ZM3.69531 14.4805C3.7526 14.4232 3.82422 14.4089 3.91016 14.4375C3.99609 14.4948 4.02474 14.5521 3.99609 14.6094C3.96745 14.6953 3.91016 14.7096 3.82422 14.6523C3.70964 14.5951 3.66667 14.5378 3.69531 14.4805ZM5.11328 15.9844C5.17057 15.8984 5.25651 15.9128 5.37109 16.0273C5.48568 16.1419 5.51432 16.2422 5.45703 16.3281C5.37109 16.4141 5.27083 16.3997 5.15625 16.2852C5.04167 16.1706 5.02734 16.0703 5.11328 15.9844ZM4.59766 15.3828C4.68359 15.2969 4.76953 15.3255 4.85547 15.4688C4.94141 15.5833 4.94141 15.6693 4.85547 15.7266C4.76953 15.7839 4.68359 15.7552 4.59766 15.6406C4.54036 15.4974 4.54036 15.4115 4.59766 15.3828Z" fill="#EDEEEE"/>
</svg>
