<svg width="8" height="8" viewBox="0 0 8 8" fill="none" xmlns="http://www.w3.org/2000/svg">
<path d="M0 0H8V8H0V0ZM4.35714 6.23214V3.67857H3.60714V6.23214C3.60714 6.54167 3.47024 6.69643 3.19643 6.69643C3.01786 6.69643 2.85714 6.57143 2.71429 6.32143L2.10714 6.67857C2.32143 7.14286 2.69643 7.375 3.23214 7.375C3.57738 7.375 3.85119 7.27976 4.05357 7.08929C4.25595 6.89881 4.35714 6.6131 4.35714 6.23214ZM6.125 7.375C6.49405 7.375 6.79167 7.28571 7.01786 7.10714C7.25595 6.91667 7.375 6.65476 7.375 6.32143C7.375 6.02381 7.29167 5.79167 7.125 5.625C6.97024 5.45833 6.72024 5.29762 6.375 5.14286L6.19643 5.07143C6.01786 4.9881 5.89286 4.91667 5.82143 4.85714C5.7619 4.79762 5.73214 4.71429 5.73214 4.60714C5.73214 4.54762 5.74405 4.49405 5.76786 4.44643C5.80357 4.39881 5.84524 4.3631 5.89286 4.33929C5.95238 4.30357 6.01786 4.28571 6.08929 4.28571C6.29167 4.28571 6.45238 4.39286 6.57143 4.60714L7.16071 4.23214C6.93452 3.82738 6.57738 3.625 6.08929 3.625C5.75595 3.625 5.4881 3.72024 5.28571 3.91071C5.08333 4.10119 4.98214 4.33929 4.98214 4.625C4.98214 4.91071 5.05952 5.14286 5.21429 5.32143C5.36905 5.4881 5.59524 5.63095 5.89286 5.75L6.07143 5.83929C6.17857 5.8869 6.25595 5.92262 6.30357 5.94643C6.3631 5.97024 6.42262 6.00595 6.48214 6.05357C6.54167 6.08929 6.57738 6.13095 6.58929 6.17857C6.6131 6.22619 6.625 6.27976 6.625 6.33929C6.625 6.44643 6.57738 6.53571 6.48214 6.60714C6.3869 6.67857 6.2619 6.71429 6.10714 6.71429C5.80952 6.71429 5.56548 6.55952 5.375 6.25L4.76786 6.60714C5.01786 7.11905 5.47024 7.375 6.125 7.375Z" fill="#EDEEEE"/>
</svg>
