<svg width="27" height="20" viewBox="0 0 27 20" fill="none" xmlns="http://www.w3.org/2000/svg">
<path d="M0.556654 1.62271C4.21655 4.72224 10.6385 10.1753 12.526 11.8755C12.7794 12.105 13.0512 12.2217 13.3333 12.2217C13.6149 12.2217 13.8862 12.1061 14.139 11.8777C16.0281 10.1758 22.4501 4.72224 26.11 1.62271C26.3379 1.4301 26.3726 1.09156 26.1882 0.856094C25.7617 0.311979 25.1259 0 24.4444 0H2.22223C1.54082 0 0.904935 0.311979 0.478529 0.856146C0.29405 1.09156 0.328789 1.4301 0.556654 1.62271Z" fill="#EDEEEE"/>
<path d="M26.3444 3.3024C26.1475 3.21073 25.9158 3.24271 25.752 3.38271C21.6932 6.82344 16.5131 11.2338 14.8833 12.7023C13.9686 13.5281 12.6991 13.5281 11.7822 12.7013C10.045 11.136 4.22792 6.19083 0.914688 3.38266C0.74974 3.24266 0.517552 3.21177 0.32224 3.30234C0.125885 3.39354 0 3.58995 0 3.80641V17.7778C0 19.0034 0.996615 20 2.22224 20H24.4445C25.6701 20 26.6667 19.0034 26.6667 17.7778V3.80641C26.6667 3.58995 26.5408 3.39302 26.3444 3.3024Z" fill="#EDEEEE"/>
</svg>
