<svg width="8" height="8" viewBox="0 0 8 8" fill="none" xmlns="http://www.w3.org/2000/svg">
<path d="M4.4 0.00114039C2.9125 0.00114039 2.52656 1.0807 2.39688 1.70696C2.575 1.6339 3.01406 1.52803 3.2 1.52803H3.20781C3.66563 1.53101 3.80781 1.65477 3.9 2.05886C3.96719 2.35559 4.00156 2.81783 4 3.05492C3.99844 3.57382 3.86719 3.93168 3.77031 4.17175L3.73906 4.24929C3.71563 4.31341 3.6875 4.37305 3.6625 4.42822C3.6375 4.48637 3.61563 4.53707 3.6 4.5818C3.69688 4.60268 3.77344 4.6325 3.825 4.65338L3.85469 4.6668C3.86406 4.67127 3.87344 4.67425 3.88125 4.68022C4.05156 4.77863 4 5.00528 4 5.18421C4 5.33332 4.00469 5.92678 4 6.4919C4.01719 6.73644 4.08281 6.94222 4.13906 7.09282C4.22188 7.30455 4.40781 7.61918 4.8 7.63558C5.10938 7.649 5.55625 7.49393 5.6 6.87363V5.34674C5.62969 4.83678 6.24219 4.63399 6.4 4.52216C6.37813 4.49383 6.29375 4.24482 6.20469 4.11211L6.1875 4.08079C6.175 4.05097 6.14219 3.99729 6.10156 3.92572C5.86563 3.51716 5.37187 2.46891 5.70937 1.93212C5.85625 1.69652 6 1.56083 6.4 1.52803C6.2375 1.08517 5.7875 0.023507 4.4 0.00114039ZM1.775 0.00114039C1.02656 0.0279804 0 0.470838 0 1.91422C0 2.89239 0.696875 5.72697 1.79688 5.72697C1.84688 5.72697 1.89688 5.71057 1.94844 5.68522C1.85156 5.6047 1.78125 5.50032 1.77188 5.36314C1.75469 5.0858 1.96563 4.89046 2.42031 4.78012C2.44219 4.77714 2.55781 4.74433 2.8125 4.60715C2.67813 4.55198 2.5375 4.47743 2.42188 4.36261C2.10469 4.0465 1.94375 3.60364 2.00313 3.20552C2.05938 2.81783 2.02656 2.4376 2.00938 2.23481L2.00781 2.21543L2.00313 2.14833L1.99375 2.00816L2.00625 1.63241C2.13594 0.997196 2.40781 0.505133 2.8 0.165162C2.50313 0.0727133 2.12969 -0.0107884 1.775 0.00114039ZM5.97344 0.0026314C5.89687 0.00412279 5.825 0.0100872 5.75469 0.0175426C6.15625 0.28445 6.525 0.715378 6.77656 1.40278L6.79375 1.92764C6.79531 1.94554 6.79844 1.96343 6.80156 1.98132C6.81406 2.04693 6.82969 2.1364 6.81719 2.24376C6.80156 2.36603 6.78594 2.49128 6.78125 2.61653C6.77813 2.74029 6.79531 2.86107 6.81406 2.98931C6.84844 3.21745 6.82969 3.44857 6.75469 3.69609L6.6375 4.08079C6.66875 4.1464 6.69844 4.2135 6.72813 4.28358C6.73438 4.30148 6.74062 4.3149 6.74531 4.32683L6.87656 4.49979C7.58281 3.90633 8 2.66425 8 1.38488C8 1.13736 7.92969 0.946499 7.83906 0.836157C7.30313 0.181563 6.56094 -0.00631502 5.97344 0.0026314ZM3.2 1.90975C3.0875 1.90975 2.7 1.99773 2.55313 2.05737L2.40938 2.11552C2.40625 2.1185 2.40313 2.12149 2.40156 2.12447C2.40313 2.14534 2.40625 2.17069 2.40938 2.20201C2.42656 2.4212 2.46094 2.82827 2.39844 3.2592C2.35625 3.54251 2.47656 3.86458 2.7125 4.09869C2.84688 4.23289 3.0875 4.32086 3.2625 4.35814C3.27344 4.3313 3.28281 4.30893 3.29531 4.27911C3.31719 4.22841 3.34219 4.17473 3.36563 4.11509L3.39688 4.03457C3.46719 3.86011 3.59844 3.53356 3.6 3.05342C3.60156 2.89537 3.58281 2.60759 3.54844 2.36155C3.54375 2.36752 3.54063 2.36752 3.5375 2.37497C3.47813 2.43164 3.38594 2.48233 3.28438 2.46742C3.11875 2.44207 2.99219 2.24972 3 2.17815C3.00937 2.10807 3.15156 2.07079 3.31719 2.09614C3.37344 2.10508 3.42656 2.12149 3.47031 2.13938C3.48594 2.15131 3.49844 2.15876 3.5125 2.16771C3.51094 2.15876 3.51094 2.14833 3.50781 2.13938C3.47031 1.97089 3.43906 1.93957 3.4375 1.93808C3.43594 1.93659 3.39375 1.91124 3.2 1.90975ZM6.39375 1.91422C6.2 1.93659 6.14531 1.9858 6.075 2.09465C6.21094 2.09465 6.30938 2.13789 6.32031 2.21841C6.33125 2.287 6.27031 2.35261 6.24375 2.37796C6.1875 2.42865 6.11719 2.46295 6.04688 2.4704C6.03438 2.47339 6.02187 2.47339 6.00781 2.47339C6.00469 2.47339 6.00312 2.4719 6 2.4719C6.02344 2.78652 6.17188 3.21148 6.37031 3.59022C6.425 3.40831 6.44688 3.23087 6.41875 3.04299C6.39844 2.90431 6.37656 2.76117 6.38125 2.6046C6.3875 2.46295 6.40312 2.33024 6.41875 2.20052C6.43125 2.10061 6.39062 2.00816 6.39375 1.91422ZM7.27187 4.78459C7.24062 4.78012 7.19688 4.7831 7.14375 4.79354C6.89219 4.84275 6.725 4.85617 6.60156 4.84871C6.55781 4.87704 6.5125 4.90388 6.45625 4.9337C6.23125 5.0515 6.03125 5.17377 6.00469 5.34525V5.56742C6.26875 5.57935 6.62187 5.42279 6.825 5.33332C7.20781 5.16482 7.49531 4.81292 7.27187 4.78459ZM3.13438 4.87257C2.91406 4.99782 2.66563 5.12158 2.5 5.15439C1.9125 5.3035 2.27656 5.47796 2.48438 5.49734C2.70625 5.54953 3.25 5.66733 3.6 5.39445C3.6 5.39445 3.6 5.39445 3.6 5.39296V5.18421C3.6 5.14395 3.60156 5.10369 3.60469 5.06045C3.60469 5.03808 3.60625 5.00826 3.60625 4.98142C3.57969 4.97098 3.54688 4.96203 3.51094 4.95309L3.13438 4.87257Z" fill="#EDEEEE"/>
</svg>
