<svg width="8" height="8" viewBox="0 0 8 8" fill="none" xmlns="http://www.w3.org/2000/svg">
<path d="M6.44213 0C6.49763 0 6.54389 0.0231263 6.58089 0.0693787L7.96846 2.12299C8.01472 2.18774 8.01009 2.2525 7.95459 2.31725L4.12488 7.04888C4.09713 7.08588 4.0555 7.10438 4 7.10438C3.9445 7.10438 3.90287 7.08588 3.87512 7.04888L0.0454115 2.31725C-0.0100915 2.2525 -0.0147167 2.18774 0.0315358 2.12299L1.41911 0.0693787C1.44686 0.0231263 1.49311 0 1.55787 0H6.44213ZM6.17849 0.666036H5.38758L6.10911 1.99811H7.05266L6.17849 0.666036ZM3.37559 0.666036L2.65405 1.99811H5.34595L4.62441 0.666036H3.37559ZM1.82151 0.666036L0.947335 1.99811H1.89089L2.61243 0.666036H1.82151ZM1.22485 2.66414L2.88994 4.88426L1.94639 2.66414H1.22485ZM2.65405 2.66414L4 6.03595L5.34595 2.66414H2.65405ZM5.11006 4.88426L6.77515 2.66414H6.05361L5.11006 4.88426Z" fill="#EDEEEE"/>
</svg>
