<svg width="10" height="6" viewBox="0 0 10 6" fill="none" xmlns="http://www.w3.org/2000/svg">
<path d="M8.33525 0C8.19221 0 8.05576 0.0165929 7.92536 0.0557129C7.79537 0.0948329 7.68449 0.150259 7.5871 0.225239C7.48971 0.296959 7.41179 0.387545 7.35311 0.491865C7.29443 0.595778 7.26476 0.716691 7.26476 0.853203C7.26476 1.02232 7.31995 1.18134 7.42713 1.32437C7.5343 1.47067 7.71007 1.58169 7.94764 1.65626L8.41881 1.80271C8.57815 1.85487 8.68884 1.9095 8.74752 1.97144C8.8062 2.03338 8.83507 2.10779 8.83507 2.19907C8.83507 2.33232 8.77677 2.43656 8.66634 2.50788C8.55591 2.5796 8.39575 2.61532 8.19119 2.61532C8.0612 2.61532 7.93437 2.6024 7.80438 2.57632C7.67765 2.55024 7.55666 2.511 7.44623 2.46251C7.41363 2.44947 7.3846 2.4364 7.36505 2.42988C7.34549 2.42336 7.32571 2.42033 7.30615 2.42033C7.25725 2.42033 7.23133 2.45256 7.23133 2.52061V2.68695C7.23133 2.71629 7.23819 2.74875 7.25123 2.77769C7.26468 2.80825 7.30056 2.83987 7.35231 2.86921C7.43707 2.91811 7.56379 2.96062 7.72638 2.99974C7.88898 3.03886 8.05789 3.05864 8.227 3.05864C8.39286 3.05864 8.54552 3.03503 8.69181 2.98939C8.83158 2.94701 8.95249 2.88943 9.05315 2.80793C9.1538 2.72969 9.23164 2.63184 9.29032 2.52141C9.34574 2.41097 9.37549 2.28392 9.37548 2.14415C9.37548 1.97504 9.32651 1.82215 9.22586 1.6889C9.1252 1.55564 8.95557 1.45148 8.72126 1.3769L8.25963 1.23046C8.08726 1.17504 7.96748 1.11332 7.90228 1.05138C7.83708 0.989442 7.80438 0.911851 7.80438 0.820571C7.80438 0.687319 7.85654 0.593193 7.95719 0.53166C8.05785 0.46972 8.20475 0.440132 8.39016 0.440132C8.62121 0.440132 8.82953 0.483123 9.01494 0.567476C9.07036 0.593556 9.11223 0.606475 9.13831 0.606475C9.18721 0.606475 9.21312 0.570264 9.21312 0.502212V0.348603C9.21312 0.302963 9.20323 0.267626 9.18367 0.241953C9.16411 0.212613 9.13181 0.186056 9.08657 0.159976C9.05397 0.140416 9.00875 0.120639 8.95047 0.101079C8.8918 0.0815191 8.83023 0.0656457 8.76503 0.0493457C8.69657 0.0363057 8.6283 0.0233103 8.55332 0.0135303C8.4816 0.00375027 8.40697 0 8.33525 0ZM1.62741 0.00716309C1.44852 0.00716309 1.27896 0.0268632 1.11963 0.0692432C0.95989 0.107956 0.823435 0.157008 0.709742 0.215688C0.664102 0.238508 0.63531 0.260927 0.61901 0.28334C0.60271 0.30616 0.595929 0.345789 0.595929 0.397949V0.557129C0.595929 0.625589 0.618736 0.657412 0.664376 0.657412C0.677416 0.657412 0.694085 0.654381 0.716905 0.647861C0.739318 0.641341 0.777763 0.628499 0.829923 0.605679C0.943615 0.560039 1.0615 0.524777 1.18171 0.495845C1.30192 0.466505 1.41901 0.452866 1.5327 0.452866C1.78331 0.452866 1.95886 0.501843 2.06277 0.602495C2.16342 0.703148 2.21558 0.87566 2.21558 1.12301V1.36099C2.08559 1.33165 1.96213 1.30486 1.84151 1.28856C1.7213 1.27226 1.60732 1.26309 1.49689 1.26309C1.16192 1.26309 0.898644 1.34787 0.700191 1.51698C0.502146 1.68609 0.404117 1.91005 0.404117 2.18633C0.404117 2.44673 0.485146 2.65463 0.644478 2.81111C0.803811 2.96719 1.0225 3.0459 1.29552 3.0459C1.67939 3.0459 1.99752 2.89573 2.2514 2.59622C2.28726 2.6712 2.32028 2.73341 2.35248 2.78883C2.38508 2.84099 2.42424 2.89274 2.46947 2.94164C2.50207 2.97098 2.53438 2.98701 2.56657 2.98701C2.59265 2.98701 2.62239 2.97712 2.65173 2.95756L2.85628 2.82146C2.89866 2.78886 2.91836 2.75576 2.91836 2.72356C2.91836 2.70074 2.91158 2.67483 2.89528 2.64875C2.84964 2.56399 2.81748 2.48648 2.79181 2.41476C2.76899 2.34304 2.756 2.24526 2.756 2.12505H2.74883V1.07048C2.74883 0.712698 2.65832 0.446238 2.47902 0.270605C2.29728 0.0953805 2.01454 0.00716309 1.62741 0.00716309ZM3.13962 0.0851611C3.08746 0.0851611 3.06162 0.114979 3.06162 0.167139C3.06162 0.189959 3.07151 0.232078 3.09107 0.29687L3.85513 2.81111C3.87469 2.87305 3.8975 2.9181 3.92358 2.93766C3.94966 2.96048 3.98867 2.97029 4.04694 2.97029H4.3263C4.38498 2.97029 4.43075 2.96048 4.45683 2.93766C4.48291 2.91484 4.50261 2.87272 4.51891 2.80793L5.01953 0.713125L5.52334 2.81111C5.53638 2.87631 5.55934 2.91882 5.58542 2.94164C5.6115 2.96446 5.65361 2.97427 5.71515 2.97427H5.9953C6.05072 2.97427 6.09259 2.9612 6.11867 2.94164C6.14475 2.92208 6.16755 2.87909 6.18712 2.8143L6.97108 0.300054C6.98412 0.264194 6.9901 0.238432 6.99336 0.218872C6.99662 0.199312 7.00052 0.182643 7.00052 0.166343C7.00052 0.110923 6.97071 0.0851611 6.91855 0.0851611H6.6161C6.55742 0.0851611 6.51564 0.098233 6.48956 0.117793C6.46674 0.137353 6.44385 0.179548 6.42429 0.244341L5.86159 2.42351L5.34744 0.244341C5.3344 0.182401 5.31224 0.137353 5.28616 0.117793C5.26008 0.094973 5.21716 0.0851611 5.15563 0.0851611H4.89537C4.83669 0.0851611 4.79172 0.098233 4.76564 0.117793C4.73956 0.137353 4.71986 0.179548 4.70356 0.244341L4.19737 2.39804L3.65059 0.245137C3.63103 0.183197 3.6114 0.137353 3.58532 0.117793C3.5625 0.094973 3.52031 0.0851611 3.45878 0.0851611H3.13962ZM1.61786 1.6499C1.71851 1.6499 1.81957 1.65675 1.92349 1.66979C2.0274 1.68283 2.12782 1.70189 2.22195 1.72471V1.86161C2.22195 1.97204 2.20888 2.06632 2.18932 2.14415C2.16976 2.22239 2.13124 2.29074 2.07948 2.35268C1.99146 2.45007 1.88763 2.52128 1.77067 2.5604C1.65372 2.59953 1.54277 2.6193 1.4356 2.6193C1.28605 2.6193 1.17199 2.58021 1.09416 2.49912C1.01266 2.42088 0.97398 2.30731 0.97398 2.1545C0.97398 1.9919 1.02599 1.86844 1.13316 1.78042C1.24033 1.6924 1.39985 1.6499 1.61786 1.6499ZM9.0611 3.64681C8.71875 3.65165 8.31455 3.72813 8.00893 3.94288C7.91479 4.01134 7.93087 4.10237 8.03519 4.08933C8.3832 4.04695 9.15142 3.95588 9.28794 4.13151C9.42445 4.30388 9.13459 5.0297 9.0046 5.35162C8.96548 5.44901 9.05069 5.48748 9.13831 5.4129C9.71044 4.93165 9.85935 3.92681 9.74239 3.78052C9.68392 3.709 9.40346 3.64197 9.0611 3.64681ZM0.0714316 3.84101C-0.000218377 3.84985 -0.0322199 3.93681 0.0435751 4.00496C1.31864 5.15656 3.00697 5.84906 4.88025 5.84906C6.21726 5.84906 7.77134 5.42943 8.84144 4.63929C9.01707 4.50889 8.86433 4.31027 8.68544 4.39177C7.48535 4.8991 6.18152 5.14707 4.99406 5.14707C3.23448 5.14707 1.53318 4.66203 0.154205 3.8617C0.124152 3.84377 0.0953149 3.83806 0.0714316 3.84101Z" fill="#EDEEEE"/>
</svg>
