<svg width="8" height="6" viewBox="0 0 8 6" fill="none" xmlns="http://www.w3.org/2000/svg">
<path d="M4.37567 2.50331H3.55082V1.77931H4.37567V2.50331ZM4.37567 0V0.748537H3.55082V0H4.37567ZM5.35049 1.77931V2.50331H4.52564V1.77931H5.35049ZM3.40085 0.895791V1.63206H2.576V0.895791H3.40085ZM4.37567 0.895791V1.63206H3.55082V0.895791H4.37567ZM7.83753 2.1229L8 2.23334C7.93335 2.35605 7.90002 2.42559 7.90002 2.44195C7.69172 2.81826 7.30846 3.00233 6.75023 2.99415C6.40863 3.80404 5.88372 4.42578 5.17552 4.85936C4.47565 5.28476 3.63414 5.49746 2.65098 5.49746C1.73449 5.49746 1.04295 5.22749 0.576365 4.68756C0.351406 4.4176 0.188936 4.09855 0.0889542 3.73042C-0.00269558 3.36228 -0.0235251 3.01869 0.0264657 2.69964H5.46297C5.69626 2.69964 5.90039 2.65465 6.07535 2.56466C5.95038 2.36832 5.89622 2.15153 5.91288 1.91429C5.92955 1.67705 5.9962 1.46844 6.11285 1.28847L6.22533 1.11667L6.40029 1.23938C6.70857 1.46026 6.88354 1.71795 6.9252 2.01246C7.0835 1.98792 7.25014 1.98383 7.42511 2.00019C7.60841 2.01655 7.74588 2.05746 7.83753 2.1229ZM1.4512 1.77931V2.50331H0.626355V1.77931H1.4512ZM2.42602 1.77931V2.50331H1.60118V1.77931H2.42602ZM3.40085 1.77931V2.50331H2.576V1.77931H3.40085ZM2.42602 0.895791V1.63206H1.60118V0.895791H2.42602Z" fill="#EDEEEE"/>
</svg>
