<svg width="8" height="10" viewBox="0 0 8 10" fill="none" xmlns="http://www.w3.org/2000/svg">
<path d="M1.05263 0C0.473684 0 0 0.478261 0 1.0628V8.71498C0 9.29952 0.473684 9.77778 1.05263 9.77778H6.94737C7.52632 9.77778 8 9.29952 8 8.71498V1.0628C8 0.478261 7.52632 0 6.94737 0H1.05263ZM1.05263 0.425121H6.94737C7.29852 0.425121 7.57895 0.708258 7.57895 1.0628V8.71498C7.57895 9.06952 7.29852 9.35266 6.94737 9.35266H1.05263C0.70148 9.35266 0.421053 9.06952 0.421053 8.71498V1.0628C0.421053 0.708258 0.70148 0.425121 1.05263 0.425121ZM3.03289 1.48792L1.99342 1.49457C1.99342 1.49457 1.99424 4.94452 2 4.92874C5.18668 3.67663 4.94737 4.56341 4.94737 4.56341V8.27657H5.94737V4.57669C5.94737 2.53827 3.03289 3.69988 3.03289 3.69988V1.48792ZM5.19079 1.49457C5.19079 1.49457 4.83141 2.33235 4.43421 2.82307H5.53947C6.13898 2.03925 6.33553 1.49457 6.33553 1.49457H5.19079ZM2.01316 6.15761V8.26993L3.05921 7.21377L2.01316 6.15761Z" fill="#EDEEEE"/>
</svg>
