<svg width="46" height="59" viewBox="0 0 46 59" fill="none" xmlns="http://www.w3.org/2000/svg">
<path d="M44.85 57.8431V54.3725C44.85 48.5882 39.1 43.9608 33.35 43.9608C26.45 49.7451 19.55 49.7451 12.65 43.9608C6.90001 43.9608 1.15001 48.5882 1.15001 54.3725V57.8431" stroke="#EDEEEE" stroke-width="2" stroke-miterlimit="10" stroke-linecap="round" stroke-linejoin="round"/>
<path d="M27.6 19.3196C28.865 19.3196 29.9 20.3608 29.9 21.6333C29.9 22.9059 28.865 23.9471 27.6 23.9471C26.335 23.9471 25.3 22.9059 25.3 21.6333C25.3 20.3608 26.335 19.3196 27.6 19.3196Z" fill="#EDEEEE"/>
<path d="M27.485 30.6569C27.715 31.2353 27.485 31.9294 26.91 32.1608C25.645 32.8549 24.265 33.0863 22.885 33.0863C21.505 33.0863 20.24 32.7392 18.975 32.1608C18.4 31.9294 18.17 31.2353 18.4 30.6569C18.63 30.0784 19.32 29.8471 19.895 30.1941C21.85 31.2353 23.805 31.2353 25.76 30.1941C26.45 29.8471 27.14 30.0784 27.485 30.6569Z" fill="#EDEEEE"/>
<path d="M18.4 19.3196C19.665 19.3196 20.7 20.3608 20.7 21.6333C20.7 22.9059 19.665 23.9471 18.4 23.9471C17.135 23.9471 16.1 22.9059 16.1 21.6333C16.1 20.3608 17.135 19.3196 18.4 19.3196Z" fill="#EDEEEE"/>
<path d="M9.54499 21.9804C9.54499 22.4431 9.54499 23.6 9.42999 24.7568C9.19999 28.3431 9.88999 31.9294 11.615 35.0529C12.305 36.2098 13.11 37.3667 14.03 38.1765C17.25 40.9529 20.47 41.0686 22.54 41.0686" stroke="#EDEEEE" stroke-width="2" stroke-miterlimit="10" stroke-linecap="round" stroke-linejoin="round"/>
<path d="M35.88 21.6333C35.88 21.749 35.88 21.8647 35.88 22.0961C35.535 24.5255 33.465 28.8059 33.465 28.8059C33.465 28.8059 31.28 32.2765 30.36 27.4176C25.53 26.0294 20.47 26.0294 15.295 27.4176C14.375 32.2765 12.19 28.8059 12.19 28.8059C12.19 28.8059 10.12 24.5255 9.77501 22.0961C9.77501 21.9804 9.77501 21.8647 9.77501 21.6333" stroke="#EDEEEE" stroke-width="2" stroke-miterlimit="10" stroke-linecap="round" stroke-linejoin="round"/>
<path d="M35.88 21.9804C35.88 22.4431 35.995 23.6 35.995 24.7568C36.225 28.3431 35.535 31.9294 33.81 35.0529C33.12 36.2098 32.43 37.3667 31.395 38.1765C28.175 40.9529 25.07 41.0686 22.885 41.0686C22.77 41.0686 22.655 41.0686 22.54 41.0686" stroke="#EDEEEE" stroke-width="2" stroke-miterlimit="10" stroke-linecap="round" stroke-linejoin="round"/>
<path d="M9.54501 21.9804C9.54501 21.9804 7.01501 14.1137 11.845 6.7098C15.525 1.04117 26.68 3.93333 26.68 3.93333L30.245 1.15686L31.51 4.74314L35.42 1.85098C36.34 4.39608 35.535 6.36274 34.04 7.98235C32.775 9.37059 31.165 10.2961 30.015 10.8745C29.21 11.3373 28.635 11.4529 28.635 11.4529C21.965 13.998 21.62 13.651 16.445 11.4529C16.445 11.4529 12.535 8.56078 9.31501 21.402" stroke="#EDEEEE" stroke-width="2" stroke-miterlimit="10" stroke-linecap="round" stroke-linejoin="round"/>
<path d="M29.9 11.4529C30.015 11.4529 30.015 11.4529 30.13 11.4529C31.51 11.5686 33.81 13.1882 35.88 21.5176" stroke="#EDEEEE" stroke-width="2" stroke-miterlimit="10" stroke-linecap="round" stroke-linejoin="round"/>
<path d="M34.27 8.21371C37.72 14.9235 35.765 21.9804 35.765 21.9804" stroke="#EDEEEE" stroke-width="2" stroke-miterlimit="10" stroke-linecap="round" stroke-linejoin="round"/>
</svg>
