<svg width="20" height="20" viewBox="0 0 20 20" fill="none" xmlns="http://www.w3.org/2000/svg">
<path d="M18.5714 0C18.9583 0 19.2857 0.14881 19.5536 0.446429C19.8512 0.714286 20 1.04167 20 1.42857V18.5714C20 18.9583 19.8512 19.2857 19.5536 19.5536C19.2857 19.8512 18.9583 20 18.5714 20H1.42857C1.04167 20 0.699405 19.8512 0.401786 19.5536C0.133929 19.2857 0 18.9583 0 18.5714V1.42857C0 1.04167 0.133929 0.714286 0.401786 0.446429C0.699405 0.14881 1.04167 0 1.42857 0H18.5714ZM6.07143 17.1429V7.58929H3.08036V17.1429H6.07143ZM3.34821 5.80357C3.6756 6.13095 4.07738 6.29464 4.55357 6.29464C5.02976 6.29464 5.43155 6.13095 5.75893 5.80357C6.11607 5.44643 6.29464 5.04464 6.29464 4.59821C6.29464 4.12202 6.11607 3.72024 5.75893 3.39286C5.43155 3.03571 5.02976 2.85714 4.55357 2.85714C4.07738 2.85714 3.6756 3.03571 3.34821 3.39286C3.02083 3.72024 2.85714 4.12202 2.85714 4.59821C2.85714 5.04464 3.02083 5.44643 3.34821 5.80357ZM17.1429 17.1429V11.9196C17.1429 11.2054 17.0982 10.5952 17.0089 10.0893C16.9196 9.58333 16.756 9.12202 16.5179 8.70536C16.2798 8.25893 15.9077 7.93155 15.4018 7.72321C14.9256 7.48512 14.3304 7.36607 13.6161 7.36607C12.9315 7.36607 12.3363 7.51488 11.8304 7.8125C11.3542 8.11012 11.0119 8.46726 10.8036 8.88393H10.7589V7.58929H7.90179V17.1429H10.8929V12.4107C10.8929 11.6667 11.0119 11.0714 11.25 10.625C11.4881 10.1786 11.9494 9.95536 12.6339 9.95536C12.9911 9.95536 13.2887 10.0298 13.5268 10.1786C13.7649 10.3274 13.9137 10.5506 13.9732 10.8482C14.0625 11.1458 14.122 11.4137 14.1518 11.6518C14.1815 11.8601 14.1964 12.1429 14.1964 12.5V17.1429H17.1429Z" fill="#EDEEEE"/>
</svg>
