<svg width="8" height="7" viewBox="0 0 8 7" fill="none" xmlns="http://www.w3.org/2000/svg">
<path d="M6.53125 2.2619C6.96875 2.41815 7.32292 2.60565 7.59375 2.8244C7.86458 3.03274 8 3.2567 8 3.49628C8 3.73586 7.85417 3.97024 7.5625 4.1994C7.28125 4.42857 6.90625 4.61607 6.4375 4.7619C6.375 4.78274 6.32812 4.79836 6.29688 4.80878C6.31771 4.8817 6.33333 4.95461 6.34375 5.02753C6.40625 5.32961 6.43229 5.60565 6.42188 5.85565C6.41146 6.10565 6.36458 6.3244 6.28125 6.5119C6.20833 6.6994 6.10417 6.82961 5.96875 6.90253C5.76042 7.01711 5.5 7.02232 5.1875 6.91815C4.88542 6.81399 4.5625 6.62128 4.21875 6.34003C4.13542 6.2567 4.06771 6.18899 4.01562 6.1369C3.96354 6.18899 3.90625 6.24107 3.84375 6.29315C3.5 6.59524 3.16146 6.79836 2.82812 6.90253C2.50521 7.01711 2.23958 7.01711 2.03125 6.90253C1.82292 6.78795 1.6875 6.5692 1.625 6.24628C1.5625 5.92336 1.57292 5.54315 1.65625 5.10565C1.67708 5.0119 1.69792 4.91815 1.71875 4.8244C1.66667 4.81399 1.59375 4.79315 1.5 4.7619C1.05208 4.60565 0.6875 4.41295 0.40625 4.18378C0.135417 3.95461 0 3.72545 0 3.49628C0 3.26711 0.130208 3.04315 0.390625 2.8244C0.651042 2.60565 1 2.42336 1.4375 2.27753C1.53125 2.24628 1.625 2.21503 1.71875 2.18378C1.69792 2.10045 1.68229 2.0119 1.67188 1.91815C1.57812 1.48065 1.5625 1.10045 1.625 0.77753C1.6875 0.444196 1.82292 0.21503 2.03125 0.0900298C2.23958 -0.0245536 2.51042 -0.0245536 2.84375 0.0900298C3.17708 0.204613 3.52083 0.423363 3.875 0.74628C3.91667 0.787946 3.95833 0.829613 4 0.87128C4.07292 0.798363 4.14062 0.735863 4.20312 0.68378C4.54688 0.381696 4.86979 0.178571 5.17188 0.0744048C5.48438 -0.0297619 5.74479 -0.0245536 5.95312 0.0900298C6.17188 0.204613 6.3125 0.438988 6.375 0.793155C6.4375 1.1369 6.41667 1.54315 6.3125 2.0119C6.30208 2.08482 6.29167 2.14211 6.28125 2.18378C6.36458 2.20461 6.44792 2.23065 6.53125 2.2619ZM4.42188 0.93378C4.35938 0.985863 4.29688 1.04315 4.23438 1.10565C4.47396 1.36607 4.69792 1.64211 4.90625 1.93378C5.25 1.96503 5.59896 2.02232 5.95312 2.10565C5.96354 2.06399 5.97396 2.0119 5.98438 1.9494C6.06771 1.54315 6.08854 1.1994 6.04688 0.918155C6.01562 0.636905 5.93229 0.454613 5.79688 0.37128C5.66146 0.298363 5.46875 0.313988 5.21875 0.418155C4.96875 0.522321 4.70312 0.694196 4.42188 0.93378ZM2.60938 4.30878C2.54688 4.18378 2.47396 4.04315 2.39062 3.8869C2.28646 4.1369 2.20312 4.37128 2.14062 4.59003C2.36979 4.64211 2.60938 4.67857 2.85938 4.6994C2.78646 4.59524 2.70312 4.46503 2.60938 4.30878ZM2.14062 2.41815C2.21354 2.64732 2.29688 2.87649 2.39062 3.10565C2.45312 2.98065 2.52604 2.84524 2.60938 2.6994C2.68229 2.5744 2.76042 2.43899 2.84375 2.29315C2.59375 2.3244 2.35938 2.36607 2.14062 2.41815ZM2.5625 3.49628C2.67708 3.72545 2.79167 3.93899 2.90625 4.1369C3.02083 4.34524 3.14583 4.54836 3.28125 4.74628C3.52083 4.7567 3.76042 4.7619 4 4.7619C4.25 4.7619 4.48958 4.7567 4.71875 4.74628C4.86458 4.52753 4.98958 4.3192 5.09375 4.12128C5.21875 3.91295 5.33333 3.70461 5.4375 3.49628C5.32292 3.26711 5.20833 3.05357 5.09375 2.85565C4.97917 2.65774 4.85417 2.45982 4.71875 2.2619C4.47917 2.24107 4.23958 2.23065 4 2.23065C3.76042 2.23065 3.52083 2.24107 3.28125 2.2619C3.13542 2.47024 3.01042 2.67336 2.90625 2.87128C2.78125 3.09003 2.66667 3.29836 2.5625 3.49628ZM5.39062 4.29315C5.29688 4.45982 5.21354 4.59524 5.14062 4.6994C5.39062 4.66815 5.63542 4.62649 5.875 4.5744C5.80208 4.33482 5.71875 4.10565 5.625 3.8869C5.54167 4.04315 5.46354 4.17857 5.39062 4.29315ZM5.60938 3.10565C5.71354 2.87649 5.79688 2.64732 5.85938 2.41815C5.64062 2.36607 5.40625 2.3244 5.15625 2.29315C5.22917 2.42857 5.30729 2.56399 5.39062 2.6994C5.45312 2.80357 5.52604 2.93899 5.60938 3.10565ZM4 1.34003C3.83333 1.51711 3.67708 1.70461 3.53125 1.90253C3.84375 1.89211 4.15625 1.89211 4.46875 1.90253C4.32292 1.70461 4.16667 1.51711 4 1.34003ZM2.1875 0.386905C2.0625 0.459821 1.97917 0.631696 1.9375 0.90253C1.90625 1.16295 1.92708 1.48065 2 1.85565C2.02083 1.95982 2.03646 2.03795 2.04688 2.09003C2.40104 2.01711 2.75 1.96503 3.09375 1.93378C3.30208 1.64211 3.52604 1.36607 3.76562 1.10565C3.69271 1.03274 3.65625 0.99628 3.65625 0.99628C3.35417 0.725446 3.06771 0.537946 2.79688 0.43378C2.52604 0.319196 2.32292 0.303571 2.1875 0.386905ZM1.8125 4.5119C1.91667 4.15774 2.04167 3.8192 2.1875 3.49628C2.04167 3.17336 1.91667 2.84003 1.8125 2.49628C1.70833 2.52753 1.61979 2.55878 1.54688 2.59003C1.18229 2.71503 0.890625 2.86086 0.671875 3.02753C0.453125 3.1942 0.34375 3.35045 0.34375 3.49628C0.364583 3.6942 0.458333 3.85045 0.625 3.96503C0.875 4.15253 1.20312 4.31399 1.60938 4.4494C1.68229 4.47024 1.75 4.49107 1.8125 4.5119ZM3.625 6.04315C3.67708 6.00149 3.72917 5.95461 3.78125 5.90253C3.53125 5.6317 3.30729 5.35045 3.10938 5.05878C2.75521 5.03795 2.40104 4.98586 2.04688 4.90253C2.02604 4.98586 2.00521 5.0744 1.98438 5.16815C1.92188 5.54315 1.90625 5.86086 1.9375 6.12128C1.97917 6.37128 2.06771 6.53274 2.20312 6.60565C2.38021 6.67857 2.5625 6.67336 2.75 6.59003C3.07292 6.46503 3.36458 6.28274 3.625 6.04315ZM4.01562 5.65253C4.18229 5.46503 4.33333 5.27753 4.46875 5.09003C4.32292 5.10045 4.16667 5.10565 4 5.10565C3.84375 5.10565 3.6875 5.10045 3.53125 5.09003C3.6875 5.29836 3.84896 5.48586 4.01562 5.65253ZM6.0625 6.12128C6.10417 5.76711 6.08854 5.42336 6.01562 5.09003C6.00521 5.02753 5.98958 4.96503 5.96875 4.90253C5.625 4.97545 5.27083 5.02753 4.90625 5.05878C4.70833 5.35045 4.48958 5.6317 4.25 5.90253C4.33333 5.98586 4.40104 6.04315 4.45312 6.0744C4.63021 6.24107 4.80729 6.37649 4.98438 6.48065C5.17188 6.5744 5.32812 6.6317 5.45312 6.65253C5.58854 6.67336 5.70312 6.66295 5.79688 6.62128C5.95312 6.49628 6.04167 6.32961 6.0625 6.12128ZM6.34375 4.4494C6.59375 4.36607 6.81771 4.26711 7.01562 4.15253C7.22396 4.03795 7.38021 3.92336 7.48438 3.80878C7.59896 3.6942 7.65625 3.58482 7.65625 3.48065C7.65625 3.34524 7.54167 3.1942 7.3125 3.02753C7.08333 2.85045 6.78646 2.6994 6.42188 2.5744C6.33854 2.55357 6.26042 2.53274 6.1875 2.5119C6.08333 2.85565 5.95833 3.18378 5.8125 3.49628C5.96875 3.82961 6.09896 4.15774 6.20312 4.48065C6.23438 4.48065 6.28125 4.47024 6.34375 4.4494ZM4.5 4.0119C4.36458 4.14732 4.19792 4.21503 4 4.21503C3.80208 4.21503 3.63021 4.14732 3.48438 4.0119C3.34896 3.86607 3.28125 3.6942 3.28125 3.49628C3.28125 3.29836 3.34896 3.1317 3.48438 2.99628C3.63021 2.85045 3.80208 2.77753 4 2.77753C4.19792 2.77753 4.36458 2.85045 4.5 2.99628C4.64583 3.1317 4.71875 3.29836 4.71875 3.49628C4.71875 3.6942 4.64583 3.86607 4.5 4.0119Z" fill="#EDEEEE"/>
</svg>
