<svg width="25" height="20" viewBox="0 0 25 20" fill="none" xmlns="http://www.w3.org/2000/svg">
<path d="M22.0673 5C22.0994 5.12821 22.1154 5.33654 22.1154 5.625C22.1154 7.32372 21.7949 9.02244 21.1538 10.7212C20.5128 12.3878 19.5994 13.9263 18.4135 15.3365C17.2596 16.7147 15.7532 17.8365 13.8942 18.7019C12.0353 19.5673 9.98397 20 7.74038 20C4.91987 20 2.33974 19.2468 0 17.7404C0.352564 17.7724 0.753205 17.7885 1.20192 17.7885C3.54167 17.7885 5.64103 17.0673 7.5 15.625C6.37821 15.625 5.38462 15.3045 4.51923 14.6635C3.6859 13.9904 3.10897 13.1571 2.78846 12.1635C3.10897 12.1955 3.41346 12.2115 3.70192 12.2115C4.15064 12.2115 4.59936 12.1635 5.04808 12.0673C4.27885 11.9071 3.58974 11.5865 2.98077 11.1058C2.37179 10.625 1.89103 10.0481 1.53846 9.375C1.1859 8.66987 1.00962 7.91667 1.00962 7.11538V7.01923C1.71474 7.4359 2.46795 7.66026 3.26923 7.69231C1.76282 6.66667 1.00962 5.25641 1.00962 3.46154C1.00962 2.5641 1.25 1.71474 1.73077 0.913462C2.98077 2.48397 4.50321 3.73397 6.29808 4.66346C8.125 5.59295 10.0641 6.10577 12.1154 6.20192C12.0513 5.81731 12.0192 5.43269 12.0192 5.04808C12.0192 3.66987 12.5 2.48397 13.4615 1.49038C14.4551 0.496795 15.641 0 17.0192 0C18.4936 0 19.7276 0.528846 20.7212 1.58654C21.875 1.36218 22.9487 0.961538 23.9423 0.384615C23.5577 1.57051 22.8205 2.5 21.7308 3.17308C22.6923 3.04487 23.6538 2.77244 24.6154 2.35577C23.9103 3.38141 23.0609 4.26282 22.0673 5Z" fill="#EDEEEE"/>
</svg>
